<?xml version="1.0" encoding="UTF-8"?>
<!DOCTYPE svg PUBLIC "-//W3C//DTD SVG 1.1//EN" "http://www.w3.org/Graphics/SVG/1.1/DTD/svg11.dtd">
<!-- Creator: CorelDRAW -->
<svg xmlns="http://www.w3.org/2000/svg" xml:space="preserve" width="6.10356in" height="2.94296in" version="1.1" style="shape-rendering:geometricPrecision; text-rendering:geometricPrecision; image-rendering:optimizeQuality; fill-rule:evenodd; clip-rule:evenodd"
viewBox="0 0 6118.19 2950.01"
 xmlns:xlink="http://www.w3.org/1999/xlink"
 xmlns:xodm="http://www.corel.com/coreldraw/odm/2003">
 <defs>
  <style type="text/css">
   <![CDATA[
    .fil2 {fill:#FDB283}
    .fil4 {fill:#FE8338}
    .fil0 {fill:#FEC7A5}
    .fil1 {fill:#FED3B8}
    .fil3 {fill:#FF2D20}
    .fil5 {fill:#FFFEFE}
   ]]>
  </style>
 </defs>
 <g id="Layer_x0020_1">
  <metadata id="CorelCorpID_0Corel-Layer"/>
  <path class="fil0" d="M5000.03 2061.53c-14.31,-13.55 -39.93,-8.39 -68.27,-8.33 -155.61,0.26 -366.56,-5.06 -508.22,0.36 57.7,24.19 467.14,-6.03 576.49,7.97l0 0z"/>
  <path class="fil1" d="M4418.56 1633.55l579.33 -4.1 -9 -7 -14.37 5.01c-93.5,-0.67 -186.84,-0.67 -280.18,-0.67 -58.01,0 -237.35,-12.61 -275.77,6.77l-0.01 -0.01z"/>
  <path class="fil0" d="M4238.45 1877.19l-0.08 -68.32c-11.83,20.43 -11.94,47.91 0.08,68.32z"/>
  <path class="fil2" d="M4919.18 2685.28l-56.41 0.91c18.94,9.58 37.26,11.04 56.41,-0.91z"/>
  <path class="fil2" d="M4675.96 1245.64l-0.12 -53.56c-9.82,20.52 -10.06,32.99 0.12,53.56z"/>
  <path class="fil1" d="M4342.34 2029.84c0,-10.45 2.32,-7.38 -9.07,-6.93 0,9.32 -1.93,5.96 9.07,6.93z"/>
  <path class="fil2" d="M4274.87 1716.33c-10.68,0 -7.93,-2.62 -7.83,8.26 9.56,0 6.42,2.15 7.83,-8.26z"/>
  <path class="fil1" d="M5699.87 1954.59c-10.43,0 -7.54,-2.43 -7.32,8.6 9.44,0 6.24,2.06 7.32,-8.6z"/>
  <path class="fil0" d="M4713.38 2356.81c-9.54,0 -6.31,-2.06 -7.08,8.84 9.99,0 6.87,2.21 7.08,-8.84z"/>
  <path class="fil0" d="M4713.72 1341.24c-0.3,-10.9 2.73,-8.6 -7.34,-8.6 0.83,10.73 -2.32,8.6 7.34,8.6z"/>
  <path class="fil0" d="M4275.8 1967.68c-0.24,-10.9 2.73,-8.53 -7.5,-8.53 1.11,10.64 -2.06,8.53 7.5,8.53z"/>
  <path class="fil2" d="M4329.06 1662.3c-10.68,0 -8.04,-2.7 -8.04,7.92 10.17,-1.63 8.04,1.49 8.04,-7.92z"/>
  <path class="fil0" d="M4331.77 2022.49c0,-9.98 2.28,-6.98 -8.54,-7.29 0,9.48 -2.08,6.33 8.54,7.29z"/>
  <path class="fil0" d="M4774.95 1035.95c-10.3,0.89 -8.1,-2.08 -8.1,7.5 10.38,-0.64 8.1,2.27 8.1,-7.5z"/>
  <path class="fil1" d="M4768.47 2296.21c-10.41,0 -8.01,-2.72 -8.01,7.32 9.86,-0.46 7.41,2.19 8.01,-7.32z"/>
  <path class="fil0" d="M5687.25 1972.58c-9.91,0 -7.08,-2.39 -7.87,7.83 9.59,0 6.65,2.25 7.87,-7.83z"/>
  <path class="fil0" d="M4719.38 2601.63c-0.3,-10.24 2.4,-7.8 -7.66,-7.8 1.08,10 -1.82,7.8 7.66,7.8z"/>
  <path class="fil0" d="M5011.95 2649.2c-10.41,0.59 -8.21,-2.36 -8.21,7.3 10.34,-0.83 8.21,2.17 8.21,-7.3z"/>
  <path class="fil0" d="M4712.86 1095.88c-9.8,0 -6.96,-2.3 -7.42,8.04 9.46,0 6.52,2.17 7.42,-8.04z"/>
  <path class="fil1" d="M4786.46 2277.57c-10.15,0 -7.6,-2.53 -7.6,7.66 9.63,-0.55 7.09,1.99 7.6,-7.66z"/>
  <path class="fil2" d="M4791.7 1427.65c0,-10.23 2.6,-7.76 -7.46,-7.76 0.48,9.74 -2.12,7.27 7.46,7.76z"/>
  <path class="fil1" d="M5607.86 2051.96c-9.53,0.53 -6.95,-1.95 -7.42,7.76 10.02,0 7.42,2.45 7.42,-7.76z"/>
  <path class="fil2" d="M5225.16 2442.34c-10.34,0 -7.87,-2.65 -7.87,7.5 9.53,-0.69 7,1.89 7.87,-7.5z"/>
  <path class="fil2" d="M4743.41 2632.46c0,-9.89 2.36,-7.22 -7.88,-7.22 0.58,9.4 -1.84,6.8 7.88,7.22z"/>
  <path class="fil0" d="M5023.78 1055.72c0,-9.59 2.3,-6.76 -7.57,-7.93 0,9.76 -2.38,6.98 7.57,7.93z"/>
  <path class="fil1" d="M4767.03 2649.95c1.72,-9.61 3.23,-6.61 -7.45,-6.33 0,8.82 -2.02,6.24 7.45,6.33z"/>
  <path class="fil2" d="M5358.37 1383.2c1.15,-9.56 3.18,-6.97 -6.66,-7.31 0,9.49 -2.49,7.32 6.66,7.31z"/>
  <path class="fil2" d="M4773.98 2656.54c0,-8.87 2.15,-6.5 -6.96,-6.59 -1.67,9.56 -3.34,6.79 6.96,6.59z"/>
  <path class="fil1" d="M5576.95 1602.8c0.54,-9.31 2.6,-6.78 -7.08,-6.78 0.51,9.56 -2.12,7.59 7.08,6.78z"/>
  <path class="fil2" d="M4761.09 1397.2c0,-9.48 2.47,-7.42 -6.71,-6.93 -1.11,9.15 -2.96,6.5 6.71,6.93z"/>
  <path class="fil1" d="M5644.59 2015.6c-9.44,0.73 -7.58,-1.95 -6.81,6.99 9.32,0.58 6.81,2.66 6.81,-6.99z"/>
  <path class="fil1" d="M5583.9 1609.59c0,-9.69 2.49,-7.61 -6.95,-6.8 -0.54,8.83 -2.43,6.18 6.95,6.8z"/>
  <path class="fil2" d="M5194.89 2473.01c-9.63,0 -7.63,-2.58 -7.3,6.5 9.22,0.79 6.71,2.86 7.3,-6.5z"/>
  <path class="fil1" d="M4756.04 2308.04c-9.44,0 -7.23,-2.4 -6.9,6.92 9.02,0.63 6.39,2.58 6.9,-6.92z"/>
  <path class="fil2" d="M5339.97 1364.97c0.9,-9 2.73,-6.29 -6.85,-6.9 0,9.41 -2.4,7.23 6.85,6.9z"/>
  <path class="fil2" d="M4724.39 2338.65c-9.17,-1.04 -6.39,-2.76 -6.39,7.25 8.84,0 6.37,2.06 6.39,-7.25z"/>
  <path class="fil2" d="M4810.34 1445.42c0,-9.52 2.55,-7.5 -6.46,-7.26 -1.01,9.2 -2.99,6.63 6.46,7.26z"/>
  <path class="fil2" d="M4772.97 1408.39c0.5,-9.19 2.57,-6.71 -6.95,-6.71 0.63,9.45 -2.02,7.59 6.95,6.71z"/>
  <path class="fil1" d="M5637.78 2022.58c-8.73,-0.6 -6.05,-2.43 -6.82,6.9 9.63,0 7.57,2.49 6.82,-6.9z"/>
  <path class="fil2" d="M5029.6 2638.07c-9.51,-0.95 -7.21,-3.16 -7.21,6.29 9.46,-0.39 7.71,2.32 7.21,-6.29z"/>
  <path class="fil0" d="M5687.64 1712.85c-0.9,-9.5 1.89,-7.78 -6.84,-6.97 -0.31,9.33 -2.55,6.97 6.84,6.97z"/>
  <path class="fil1" d="M5680.8 1705.88c0.31,-9.12 2.4,-6.63 -7.08,-6.63 0.72,9.33 -1.89,7.42 7.08,6.63z"/>
  <path class="fil2" d="M5205.76 2461.04c-9.21,-0.53 -6.67,-2.57 -6.67,7.06 9.17,-0.92 7.27,1.7 6.67,-7.06z"/>
  <path class="fil2" d="M5212.64 2454.23c-9.54,0 -7.46,-2.47 -6.87,6.82 8.69,0.54 6.03,2.4 6.87,-6.82z"/>
  <path class="fil2" d="M4822.39 1456.32c0.46,-9.22 2.55,-6.74 -7,-6.74 0.91,9.17 -1.72,7.27 7,6.74z"/>
  <path class="fil2" d="M5175.75 2491.74c-8.61,-0.2 -6.57,-2.36 -6.46,6.11 9.72,1.33 7.71,3.51 6.46,-6.11z"/>
  <path class="fil2" d="M5389.37 1412.9c0.98,-8.97 2.62,-6.42 -7.03,-5.37 -0.06,8.37 -1.93,6.05 7.03,5.37z"/>
  <path class="fil2" d="M5132.95 2534.39c-8.36,-0.85 -6.16,-2.72 -6.48,5.74 9.21,1.7 7.06,3.62 6.48,-5.74z"/>
  <path class="fil2" d="M5157.72 2510.39c-8.78,-0.58 -6.84,-2.77 -6.65,5.7 9.28,0.94 7.44,3.23 6.65,-5.7z"/>
  <path class="fil1" d="M5522.35 1547.87c0.25,-8.42 2.25,-6.27 -6.31,-6.09 -0.77,9.24 -2.89,7.22 6.31,6.09z"/>
  <path class="fil2" d="M5394.79 1419.73c0.84,-9.26 3.27,-7.58 -5.42,-6.82 -0.87,9.03 -3.16,7.21 5.42,6.82z"/>
  <path class="fil2" d="M5163.04 2503.38c-8.34,-0.02 -6.05,-1.89 -5.32,7 8.75,0.64 6.31,2.36 5.32,-7z"/>
  <path class="fil2" d="M4754.38 1390.29c1.02,-9.07 3.3,-7.26 -5.34,-6.8 -0.76,9.03 -3.12,7.31 5.34,6.8z"/>
  <path class="fil2" d="M4749.04 1383.49c0.8,-8.37 2.71,-6.24 -5.68,-6.41 -1.42,8.95 -3.34,6.84 5.68,6.41z"/>
  <path class="fil0" d="M5089.49 2576.11c-8.82,-0.59 -7,-2.86 -6.61,5.53 8.99,0.85 7.17,3.09 6.61,-5.53z"/>
  <path class="fil0" d="M5486 1511.09c0.34,-8.43 2.12,-6.11 -6.85,-5.33 -0.33,8.43 -2.12,6.11 6.85,5.33z"/>
  <path class="fil0" d="M5460.6 1487.74c0.52,-8.69 2.71,-6.79 -5.66,-6.57 -0.79,8.95 -2.99,7.06 5.66,6.57z"/>
  <path class="fil0" d="M5528.63 1553.67c0.43,-8.85 2.52,-6.92 -6.27,-5.79 -0.25,8.41 -2.23,6.37 6.27,5.79z"/>
  <path class="fil0" d="M5534.52 1559.8c1.26,-8.86 3.13,-6.72 -5.9,-6.13 -0.43,8.33 -2.42,6.31 5.9,6.13z"/>
  <path class="fil2" d="M5187.6 2479.5c-8.94,-0.74 -7.15,-3.03 -6.66,5.46 8.79,0.6 6.99,2.87 6.66,-5.46z"/>
  <path class="fil0" d="M5510.16 1535.57c0.6,-8.78 2.81,-6.92 -5.64,-6.52 -0.47,8.69 -2.69,6.84 5.64,6.52z"/>
  <path class="fil0" d="M5516.03 1541.79c0.78,-8.6 2.75,-6.54 -5.86,-6.22 -0.62,8.47 -2.6,6.42 5.86,6.22z"/>
  <path class="fil2" d="M4694.09 2561.63l-5.67 -11.18c-1.03,13.15 -4.98,11.18 5.67,11.18z"/>
  <path class="fil2" d="M5716.8 1762.96c0.95,-12.57 4.62,-10.51 -5.98,-10.51l5.98 10.51z"/>
  <path class="fil1" d="M4706.39 2367.79l-6.35 9.96c10.64,0 7.22,2.19 6.35,-9.96z"/>
  <path class="fil2" d="M5716.56 1922.91l-5.81 10.69c10.36,0 6.57,1.97 5.81,-10.69z"/>
  <path class="fil2" d="M4982.01 2667.32l-10.38 5.98c12.4,0.74 10.38,4.39 10.38,-5.98z"/>
  <path class="fil2" d="M5000.05 1037.41c0,-10.67 2.28,-7.45 -9.52,-6.68l9.52 6.68z"/>
  <path class="fil0" d="M4693.73 2391.25l-5.56 10.88c9.93,0 6.03,1.82 5.56,-10.88z"/>
  <path class="fil0" d="M4707.34 2583.18c0.28,-11.98 3.81,-9.97 -6.24,-9.97l6.24 9.97z"/>
  <path class="fil2" d="M4694.81 1126.31c-10.13,0 -6.71,-2.04 -6.07,9.82l6.07 -9.82z"/>
  <path class="fil2" d="M5710.88 1750.3c0.65,-11.61 3.9,-9.46 -6.35,-9.46l6.35 9.46z"/>
  <path class="fil0" d="M4701.08 2571.08c0.43,-11.65 3.78,-9.58 -6.27,-9.58l6.27 9.58z"/>
  <path class="fil2" d="M4994.08 2661.44l-10.14 5.79c12.03,0.42 10.14,4.03 10.14,-5.79z"/>
  <path class="fil2" d="M4988.02 1030.98c0,-10.01 2.06,-6.69 -9.52,-6.31l9.52 6.31z"/>
  <path class="fil2" d="M4256.71 1938.4l-6.07 -9.5c-0.56,11.53 -3.87,9.5 6.07,9.5z"/>
  <path class="fil0" d="M5627.15 2034.42l-7.99 7.86c10.6,0 7.99,2.68 7.99,-7.86z"/>
  <path class="fil0" d="M5657.18 2003.61l-7.71 8.02c10.41,0 7.71,2.55 7.71,-8.02z"/>
  <path class="fil2" d="M5710.64 1935.59l-6.37 8.93c9.7,0 6.59,2.06 6.37,-8.93z"/>
  <path class="fil1" d="M5675.11 1985.26l-7.4 7.92c10.08,0 7.4,2.43 7.4,-7.92z"/>
  <path class="fil2" d="M4841.19 1475.59c0,-10.28 2.62,-7.8 -7.52,-7.8l7.52 7.8z"/>
  <path class="fil2" d="M5242.94 2423.64c-10.12,0 -7.54,-2.49 -7.54,7.73l7.54 -7.73z"/>
  <path class="fil2" d="M5328.32 1353.77l-7.31 -7.95c0,10.34 -2.7,7.95 7.31,7.95z"/>
  <path class="fil2" d="M5291.73 1317.22l-8.05 -7.2c0,9.93 -2.34,7.2 8.05,7.2z"/>
  <path class="fil2" d="M5310.02 1335.39l-7.75 -7.48c0,10.08 -2.47,7.48 7.75,7.48z"/>
  <path class="fil1" d="M5595.88 1621.88c0,-10.21 2.58,-7.71 -7.52,-7.71l7.52 7.71z"/>
  <path class="fil2" d="M5430.76 1456.76c1.8,-10.17 4.07,-8.33 -5.92,-6.44l5.92 6.44z"/>
  <path class="fil0" d="M5566.16 1590.94c0,-10.1 2.65,-8.19 -7,-6.8l7 6.8z"/>
  <path class="fil2" d="M4725.21 1079.57c-9.67,-1.84 -7.19,-3.82 -7.34,6.07l7.34 -6.07z"/>
  <path class="fil2" d="M5120.44 2546.11l-6.57 5.6c10.08,1.7 8.43,4.12 6.57,-5.6z"/>
  <path class="fil0" d="M5144.34 2521.31c-9.8,-1.65 -7.6,-3.51 -5.74,6.44l5.74 -6.44z"/>
  <path class="fil2" d="M5102.26 2564.44l-6.18 6.18c9.82,1.58 7.76,3.64 6.18,-6.18z"/>
  <path class="fil0" d="M5375.48 1402.58l-5.96 -6.46c-1.41,9.93 -3.71,8.09 5.96,6.46z"/>
  <path class="fil2" d="M4748.94 1054.38c-9.89,-1.16 -8.02,-3.47 -6.42,6.16l6.42 -6.16z"/>
  <path class="fil2" d="M4803.88 1438.16c1,-9.5 3.06,-7 -6.71,-7l6.71 7z"/>
  <path class="fil2" d="M4780.17 1414.93c0,-9.59 2.38,-7.39 -7.21,-6.54l7.21 6.54z"/>
  <path class="fil0" d="M5126.48 2540.15c-9.76,-1.69 -7.81,-3.75 -6.03,5.96l6.03 -5.96z"/>
  <path class="fil0" d="M5406.54 1432.11l-6.54 -5.59c-1.67,9.56 -3.36,7.21 6.54,5.59z"/>
  <path class="fil1" d="M5559.17 1584.15l-6.03 -6.44c-1.35,9.75 -3.56,7.81 6.03,6.44z"/>
  <path class="fil0" d="M4737.59 2325.88c-9.68,0 -7.52,-2.49 -7.04,6.96l7.04 -6.96z"/>
  <path class="fil2" d="M5346.57 1372.04l-6.59 -7.07c-0.86,9.48 -3,7.07 6.59,7.07z"/>
  <path class="fil0" d="M4731.56 1073.62l-6.35 5.94c9.55,1.84 7.39,3.76 6.35,-5.94z"/>
  <path class="fil0" d="M4743.37 1377.09c1.43,-9.62 3.45,-7.58 -6.2,-5.99l6.2 5.99z"/>
  <path class="fil2" d="M5138.6 2527.75l-5.66 6.65c9.58,0.85 7.52,2.92 5.66,-6.65z"/>
  <path class="fil1" d="M4749.14 2314.97c-9.42,-0.61 -7,-2.78 -7,6.76l7 -6.76z"/>
  <path class="fil2" d="M4829.39 1463.13c0,-9.51 2.41,-7.32 -7,-6.81l7 6.81z"/>
  <path class="fil2" d="M4756.08 1048.23l-7.13 6.14c9.44,1.17 7.13,3.3 7.13,-6.14z"/>
  <path class="fil0" d="M5424.85 1450.32l-5.9 -6.01c-1.39,9.69 -3.56,7.91 5.9,6.01z"/>
  <path class="fil2" d="M4730.99 1365.03c0.83,-9.1 2.64,-6.39 -7.21,-6.39l7.21 6.39z"/>
  <path class="fil1" d="M5540.73 1566.04l-6.22 -6.24c-1.25,9.45 -3.29,7.33 6.22,6.24z"/>
  <path class="fil0" d="M5113.86 2551.72c-9.38,-1.78 -7.19,-3.69 -6.41,5.87l6.41 -5.87z"/>
  <path class="fil0" d="M5436.58 1463.1l-5.82 -6.35c-1.84,9.37 -3.73,7.21 5.82,6.35z"/>
  <path class="fil2" d="M5035.39 2631.5l-5.79 6.57c9.31,0.98 7.11,2.92 5.79,-6.57z"/>
  <path class="fil2" d="M5413.26 1437.7c0.68,-9.34 2.71,-7.24 -6.72,-5.59l6.72 5.59z"/>
  <path class="fil2" d="M4737.17 1371.09l-6.2 -6.07c-0.77,9.5 -3.04,7.69 6.2,6.07z"/>
  <path class="fil0" d="M5053.07 2612.67c-9.33,-1 -7.3,-3.08 -6.12,6.22l6.12 -6.22z"/>
  <path class="fil0" d="M5071.3 2594.37c-9.46,-1.15 -7.63,-3.45 -6.61,5.69l6.61 -5.69z"/>
  <path class="fil0" d="M5448.45 1475.62l-6.24 -6.07c-0.87,9.23 -2.96,7.22 6.24,6.07z"/>
  <path class="fil2" d="M5418.94 1444.31c1.39,-9.21 3.46,-7.18 -5.68,-6.61l5.68 6.61z"/>
  <path class="fil0" d="M5082.88 2581.64c-8.96,-0.93 -6.57,-2.67 -5.51,6.79l5.51 -6.79z"/>
  <path class="fil0" d="M5479.16 1505.75l-5.9 -6.39c-1.1,9.21 -3.21,7.22 5.9,6.39z"/>
  <path class="fil0" d="M5077.37 2588.43l-6.07 5.94c9.17,1.19 7.19,3.21 6.07,-5.94z"/>
  <path class="fil0" d="M5096.07 2570.61c-9.13,-1.55 -7.11,-3.58 -6.57,5.49l6.57 -5.49z"/>
  <path class="fil2" d="M5369.51 1396.12c1.44,-8.99 3.33,-6.84 -5.81,-6.31l5.81 6.31z"/>
  <path class="fil0" d="M5041.41 2625.41c-9.18,-0.63 -7.38,-2.85 -6,6.09l6 -6.09z"/>
  <path class="fil0" d="M5497.85 1523.61l-6.09 -6.2c-0.78,9.09 -2.91,7.13 6.09,6.2z"/>
  <path class="fil0" d="M5473.25 1499.37c1.11,-9.08 3.14,-7.1 -5.9,-6.11l5.9 6.11z"/>
  <path class="fil0" d="M5553.13 1577.72c1.39,-8.94 3.25,-6.81 -5.85,-6.16l5.85 6.16z"/>
  <path class="fil0" d="M4742.51 1060.53l-5.66 6.29c9.08,0.54 7.22,2.66 5.66,-6.29z"/>
  <path class="fil2" d="M5169.29 2497.86c-9.13,-1.31 -7.32,-3.43 -6.24,5.53l6.24 -5.53z"/>
  <path class="fil0" d="M5107.46 2557.59c-8.88,-0.35 -6.72,-2.28 -5.2,6.84l5.2 -6.84z"/>
  <path class="fil0" d="M5454.94 1481.19c0.85,-8.87 2.68,-6.67 -6.48,-5.56l6.48 5.56z"/>
  <path class="fil2" d="M5400.01 1426.51c1.54,-9.1 3.67,-7.17 -5.22,-6.79l5.22 6.79z"/>
  <path class="fil0" d="M5046.94 2618.9l-5.54 6.52c8.83,0.67 6.68,2.55 5.54,-6.52z"/>
  <path class="fil0" d="M5467.36 1493.26l-6.77 -5.5c-0.57,8.74 -2.4,6.44 6.77,5.5z"/>
  <path class="fil0" d="M5442.22 1469.55c0.84,-9.12 3.12,-7.36 -5.62,-6.44l5.62 6.44z"/>
  <path class="fil2" d="M5180.94 2484.97c-8.68,-0.67 -6.35,-2.39 -5.19,6.78l5.19 -6.78z"/>
  <path class="fil2" d="M5151.07 2516.09l-6.72 5.21c8.92,1.56 6.93,3.59 6.72,-5.21z"/>
  <path class="fil0" d="M5059.5 2607.03l-6.42 5.64c9,0.98 7.12,3.13 6.42,-5.64z"/>
  <path class="fil0" d="M4736.85 1066.81c-8.63,-0.58 -6.29,-2.32 -5.3,6.81l5.3 -6.81z"/>
  <path class="fil0" d="M5491.77 1517.41c0.76,-9 2.97,-7.17 -5.77,-6.33l5.77 6.33z"/>
  <path class="fil2" d="M5363.71 1389.81l-5.34 -6.61c-1.09,8.97 -3.29,7.16 5.34,6.61z"/>
  <path class="fil0" d="M5504.52 1529.05c0.51,-8.58 2.32,-6.33 -6.68,-5.44l6.68 5.44z"/>
  <path class="fil0" d="M5547.28 1571.55c0.3,-8.65 2.28,-6.59 -6.54,-5.51l6.54 5.51z"/>
  <path class="fil0" d="M5064.67 2600.06l-5.18 6.97c8.46,0.34 6.09,2.1 5.18,-6.97z"/>
  <path class="fil2" d="M5382.34 1407.53c0.07,-8.57 1.99,-6.46 -6.87,-4.95l6.87 4.95z"/>
  <path class="fil0" d="M4730.56 2332.83l-6.16 5.81c8.69,0.96 6.63,2.91 6.16,-5.81z"/>
  <polygon class="fil2" points="4853.01,1004.63 4833.61,1013.04 "/>
  <polygon class="fil0" points="4380.3,2046.75 4369.29,2041.42 "/>
  <polygon class="fil0" points="4680.57,1157.47 4691.35,1142.33 "/>
  <polygon class="fil2" points="4397.31,2053.64 4383.22,2046.19 "/>
  <polygon class="fil2" points="5726.09,1783.49 5715.54,1767.7 "/>
  <polygon class="fil0" points="4681,1271.88 4676.63,1258.26 "/>
  <polygon class="fil1" points="4681.48,2425.86 4688.85,2410.92 "/>
  <polygon class="fil2" points="4237.71,1793.32 4244.95,1778.93 "/>
  <polygon class="fil2" points="5729.59,1804.98 5723.1,1789.22 "/>
  <polygon class="fil0" points="4402.41,1632.16 4386.33,1641.92 "/>
  <polygon class="fil0" points="4246.51,1905.16 4236.87,1888.37 "/>
  <polygon class="fil2" points="5723.04,1896.78 5729.65,1881.29 "/>
  <polygon class="fil2" points="4680.94,2430.59 4676.8,2446.07 "/>
  <polygon class="fil2" points="4377.92,1638.14 4365.81,1646.34 "/>
  <polygon class="fil0" points="4959.71,1021.1 4943.88,1011.05 "/>
  <polygon class="fil0" points="4965.48,2674.86 4953.53,2679.95 "/>
  <polygon class="fil2" points="4847.41,2686.83 4832.41,2680.08 "/>
  <polygon class="fil0" points="4942.46,2681.64 4929.23,2685.89 "/>
  <polygon class="fil2" points="4825.43,1013.12 4812.42,1017.81 "/>
  <polygon class="fil0" points="4935.06,1011.46 4917.6,1005.77 "/>
  <path class="fil3" d="M2863.37 667.91c1.04,3.93 1.61,7.98 1.61,12.06l0 633.07c0.02,0 0.02,0 0.02,0 0,16.53 -8.85,31.82 -23.21,40.04l-531.34 305.92 -0.02 606.36c0,16.51 -8.77,31.74 -23.07,40.04l-1109.15 638.51c-2.53,1.43 -5.3,2.36 -8.07,3.34 -1.04,0.35 -2.02,0.98 -3.12,1.26 -3.84,0.98 -7.83,1.5 -11.82,1.5 -3.99,0 -7.98,-0.52 -11.82,-1.52 -1.26,-0.35 -2.42,-1.04 -3.64,-1.5 -2.53,-0.91 -5.19,-1.72 -7.61,-3.12l-1108.93 -638.44c-14.33,-8.28 -23.15,-23.54 -23.19,-40.08l-0.02 -1899.19c0,-4.16 0.56,-8.2 1.61,-12.12 0.35,-1.33 1.15,-2.53 1.61,-3.86 0.87,-2.42 1.69,-4.9 2.95,-7.16 0.87,-1.5 2.14,-2.71 3.19,-4.1 1.33,-1.85 2.53,-3.75 4.1,-5.36 1.33,-1.33 3.06,-2.32 4.56,-3.47 1.67,-1.39 3.19,-2.88 5.08,-3.99l0.04 0.02 554.48 -319.24c7.05,-4.03 15.02,-6.18 23.11,-6.18 8.09,0 16.08,2.14 23.07,6.18l554.48 319.24 0.11 0c1.85,1.15 3.4,2.6 5.08,3.93 1.5,1.15 3.19,2.21 4.49,3.47 1.61,1.69 2.77,3.58 4.16,5.43 0.98,1.39 2.32,2.6 3.12,4.1 1.33,2.32 2.08,4.73 3.01,7.15 0.46,1.33 1.26,2.53 1.61,3.93 1.04,3.9 1.61,7.96 1.61,12.04l0 1186.25 462.05 -266.05 0 -606.43c0,-4.03 0.56,-8.13 1.61,-11.99 0.41,-1.39 1.15,-2.6 1.61,-3.92 0.91,-2.43 1.72,-4.91 3.01,-7.16 0.87,-1.5 2.14,-2.71 3.12,-4.1 1.39,-1.85 2.53,-3.75 4.17,-5.36 1.33,-1.33 3.01,-2.32 4.49,-3.47 1.72,-1.39 3.23,-2.88 5.08,-3.99l0.02 0.02 554.55 -319.24c7.03,-4.05 15,-6.2 23.09,-6.2 8.09,0 16.08,2.14 23.07,6.18l554.48 319.24c1.97,1.15 3.47,2.6 5.19,3.93 1.44,1.15 3.12,2.21 4.45,3.47 1.61,1.69 2.77,3.58 4.17,5.43 1.04,1.39 2.32,2.6 3.12,4.1 1.33,2.25 2.08,4.73 3.01,7.16 0.52,1.33 1.26,2.53 1.61,3.92l-0.02 0 -0.02 -0.06zm-90.81 618.42l0 -526.46 -194.04 111.7 -268.08 154.35 0 526.46 462.16 -266.05 -0.04 0zm-554.5 952.3l0 -526.78 -263.67 150.6 -752.97 429.74 0 531.75 1016.67 -585.29 -0.02 -0.02 -0.01 0zm-2125.62 -1792.58l0 1792.6 1016.53 585.23 0 -531.64 -531.06 -300.55 -0.17 -0.11 -0.24 -0.11c-1.78,-1.04 -3.29,-2.53 -4.97,-3.82 -1.44,-1.15 -3.12,-2.08 -4.38,-3.34l-0.11 -0.17c-1.5,-1.44 -2.53,-3.23 -3.82,-4.84 -1.15,-1.55 -2.53,-2.88 -3.47,-4.49l-0.07 -0.17c-1.04,-1.72 -1.67,-3.82 -2.42,-5.77 -0.74,-1.72 -1.72,-3.34 -2.21,-5.19l0 -0.07c-0.57,-2.21 -0.7,-4.49 -0.92,-6.76 -0.24,-1.72 -0.69,-3.47 -0.69,-5.19l0 -0.11 0 -1239.42 -267.97 -154.42 -194.04 -111.59 0 -0.04 0.02 -0.02zm508.33 -345.87l-462.01 265.95 461.88 265.95 461.95 -265.99 -461.95 -265.88 0.13 -0.02 0 -0.01zm240.26 1659.66l268.01 -154.29 0 -1159.5 -194.04 111.7 -268.08 154.35 0 1159.53 194.11 -111.77 0 -0.02zm1423.27 -1345.83l-461.94 265.95 461.94 265.95 461.88 -265.99 -461.88 -265.88 0 -0.02 0 -0.01zm-46.23 611.89l-268.08 -154.35 -194.04 -111.7 0 526.46 268.01 154.29 194.11 111.77 0 -526.46 0.01 -0.01zm-1062.92 1186.36l677.56 -386.83 338.69 -193.3 -461.6 -265.77 -531.47 305.98 -484.39 278.86 461.18 261.03 0.02 0.02 0.01 0z"/>
  <path class="fil4" d="M4680.47 1180.07l4.71 -34.47 10.75 -15.09 -2.6 -6.18c-0.65,-11.81 -4.06,-9.78 6.03,-9.78l10.6 -22.31c0.46,-10.3 -2.36,-8.01 7.4,-8.01l4.99 -10.23c0.14,-9.83 -2.32,-7.87 7.31,-6.03l6.33 -5.94c-0.98,-9.1 -3.32,-7.36 5.28,-6.78l5.64 -6.26c-1.59,-9.59 -3.46,-7.29 6.41,-6.13l7.11 -6.12 10.75 -4.76c0,-9.55 -2.19,-6.59 8.07,-7.47l37.34 -18.07 12.96 -4.67 8.15 -0.08 19.33 -8.37 64.35 1.13 17.39 5.67 8.79 -0.41 15.78 10 18.71 3.57c11.55,-0.37 9.48,-3.69 9.48,6.29l2.49 -0.25c11.77,-0.77 9.48,-3.97 9.48,6.65l16.1 10.34c9.83,1.17 7.54,-1.67 7.54,7.9l258.95 253.37 8.02 7.18 10.51 10.66 7.72 7.45 10.95 10.39 7.28 7.93 4.78 4.28c9.55,0.6 7.73,-2.1 6.83,6.87l6.57 7.04 5.12 3.85c9.8,0.34 7.78,-2.25 6.63,7.28l5.32 6.59c9.1,-0.52 7.23,-2.67 5.79,6.29l5.94 6.44c8.82,-1.52 6.91,-3.61 6.85,4.93 9.6,-1.04 7.98,-3.58 7,5.35 8.65,-0.75 6.24,-2.43 5.4,6.8 8.85,-0.38 6.74,-2.3 5.2,6.76l6.5 5.57c9.38,-1.63 7.37,-3.73 6.7,5.57 9.11,-0.57 7.05,-2.6 5.66,6.57l5.88 5.99c9.95,-1.89 7.68,-3.73 5.9,6.42l5.81 6.31c8.71,-0.91 6.44,-2.67 5.6,6.42l6.22 6.05c9.13,-1.1 7.31,-3.31 6.46,5.54 8.33,-0.22 6.16,-2.12 5.63,6.55l6.74 5.48c9,-0.98 6.98,-2.95 5.87,6.09l5.88 6.37c8.94,-0.77 7.16,-3.08 6.82,5.31 8.7,-0.84 6.5,-2.67 5.74,6.31l6.07 6.18c8.96,-0.87 7.15,-3.12 6.65,5.42 8.42,-0.4 6.22,-2.27 5.62,6.5 8.59,-0.31 6.63,-2.36 5.84,6.2 8.53,-0.19 6.55,-2.32 6.29,6.07 8.76,-1.12 6.69,-3.05 6.26,5.77 8.99,-0.58 7.13,-2.71 5.87,6.11l6.2 6.22c8.78,-1.07 6.82,-3.13 6.52,5.48 9.07,-0.63 7.22,-2.76 5.83,6.14l6.01 6.42c9.61,-1.39 6.98,-3.3 6.98,6.77l3.69 5.06c9.64,0 7.59,-2.53 7.06,6.74 9.4,-0.8 6.92,-2.88 6.92,6.78l4.47 4.56c10.06,0 7.49,-2.49 7.49,7.69l77.56 77.07c9.44,0 7.36,-2.47 7.05,6.61 8.71,-0.81 5.92,-2.53 6.82,6.95l16.84 27.88c10.21,0 6.97,-2.14 6.31,9.43l-0.06 2.15c10.56,0 6.91,-2.06 5.96,10.47l-1.25 4.73 10.51 15.73 -2.99 5.71 6.46 15.7 0.06 76.03 -6.59 15.43 -6.46 26.04c0.77,12.62 4.54,10.66 -5.79,10.66l-0.11 1.97c0.22,10.96 3.32,8.9 -6.35,8.9l-4.38 10.02c-1.07,10.62 2.12,8.57 -7.29,8.57l-5.27 9.35c-1.22,10.04 1.72,7.8 -7.84,7.8l-4.25 4.84c0,10.32 2.67,7.89 -7.37,7.89l-10.51 10.39c0,10.54 2.69,7.99 -7.68,7.99l-4.86 3.95c0,9.6 2.51,7.54 -6.79,6.96 0.75,9.34 2.82,6.87 -6.79,6.87l-3.81 4.92c0,10.49 2.6,7.83 -7.96,7.83l-11.25 9.65c0,10.17 2.6,7.74 -7.39,7.74l-356.19 362.58 -7.51 7.71 -10.21 10.93c-0.87,9.35 1.67,6.78 -7.84,7.47l-4.64 4.38c-0.84,9.17 1.8,7.32 -6.85,6.79 0.59,8.73 2.49,6.11 -6.65,7.03l-4.18 4.88c-0.59,9.32 1.91,7.27 -7.28,6.48 0.33,8.3 2.12,6.05 -6.63,5.44l-5.17 6.74c1.23,9.59 3.25,7.43 -6.44,6.09l-6.22 5.5c0.97,9.33 3.41,7.62 -5.31,6.99 0.79,8.9 2.62,6.63 -6.63,5.68 0.19,8.78 2.19,6.76 -6.71,5.2l-5.72 6.42c1.86,9.53 3.92,7.48 -5.62,6.63 0.57,9.33 2.73,7.43 -6.46,5.72l-6.01 5.96c1.84,9.68 3.49,7.28 -6.56,5.58l-6.39 5.85 -5.18 6.82c1.57,9.8 3.63,7.74 -6.16,6.16l-6.56 5.47c0.54,8.59 2.36,6.35 -6.59,5.5l-5.49 6.77c1.1,9.11 3.09,7.11 -6.05,5.92l-6.59 5.67c0.91,9.02 3.27,7.28 -5.16,6.94 0.68,8.74 2.56,6.59 -6.41,5.62l-6.11 6.2c1.13,9.03 3.29,7.16 -5.53,6.5l-5.98 6.05c1.3,9.46 3.51,7.54 -5.77,6.56 0.5,8.59 2.26,5.88 -7.18,6.27l-10.41 4.81c0,9.43 2.12,6.42 -8.18,7.27l-9.63 4.92c0,9.78 1.87,6.18 -10.11,5.77l-1.91 0.09c0,10.34 2.02,6.72 -10.34,5.97l-6.14 1.54 -11.9 5.07 -11.04 1.69 -13.18 4.25 -10.02 -0.61c-19.09,11.9 -37.35,10.45 -56.21,0.91l-15.3 0.63 -14.95 -6.72 -58.22 -23.46c-10.26,0.19 -8.59,2.97 -6.93,-6.57 -9.43,-0.09 -7.42,2.49 -7.42,-6.31l-16.12 -11.12c-9.68,-0.43 -7.26,2.17 -7.84,-7.2l-16.1 -23.52c-9.44,0 -6.55,2.21 -7.63,-7.77l-4.37 -10.62 -6.22 -9.93 -0.01 -2.12 -6.24 -9.55 -0.72 0.12c-10.62,0 -6.68,1.97 -5.64,-11.13 -8.03,-44.36 -10.04,-55.43 -11.58,-103.99l4.12 -15.44 0.54 -4.71 7.34 -14.89 -0.68 -8.75 5.54 -10.84 6.29 -13.45 6.33 -9.93 -0.09 -2.14c0.76,-10.86 -2.47,-8.81 7.05,-8.81l4.61 -10.88c0,-9.97 -2.79,-8.26 6.37,-7.22l6.13 -5.79c-0.48,-9.41 -2.64,-6.93 7.02,-6.93l4.53 -4.14c0,-9.5 -2.41,-7.34 6.98,-6.74 -0.33,-9.28 -2.54,-6.9 6.87,-6.9l4.4 -4.49c0,-10 -2.4,-7.3 7.98,-7.3l10.36 -10.95c0,-10.14 -2.55,-7.63 7.58,-7.63l212.78 -215.24c-108.95,-13.95 -516.9,16.16 -574.39,-7.95l-26.12 0.08 -14.05 -7.44 -2.92 0.57 -10.96 -5.3 -26.86 -11.55c-10.97,-0.96 -9.03,2.39 -9.03,-6.91l-1.49 -0.41c-10.58,-0.95 -8.51,2.19 -8.51,-7.26 -22.64,-13.01 -34.99,-23.95 -47.26,-47.35 -9.53,0 -6.37,2.1 -7.47,-8.5l-11.55 -20.68c-9.89,0 -6.61,2.02 -6.05,-9.46l-4.12 -23.65 -9.6 -16.73 1.57 -11.14c-11.97,-20.33 -11.86,-47.71 -0.08,-68.07l-0.66 -15.49 7.22 -14.35 21.99 -54.15c-0.09,-10.83 -2.84,-8.22 7.81,-8.22 19.25,-24.91 21.99,-26.34 45.98,-45.94 0,-10.58 -2.62,-7.89 8.01,-7.89l36.63 -15.91 12.07 -8.17 8.38 3.76 16.02 -9.72 16.09 1.39c38.28,-19.32 216.96,-6.74 274.76,-6.74 93,0 186,0 279.16,0.67l14.31 -4.99 -147.15 -146.31 -7.49 -7.76 -4.27 -4.65 -6.98 -6.78c-8.69,0.53 -6.07,2.43 -6.98,-6.72l-5.03 -4.16c-9.41,-0.63 -7.44,1.93 -6.44,-7.23l-6.68 -6.98 -5.45 -3.5c-9.54,-0.49 -6.96,1.97 -7.44,-7.74l-4.04 -4.94 -7.19 -6.5c-8.93,0.88 -6.29,2.73 -6.93,-6.68l-4.91 -4.47c-9.63,-0.41 -7.8,2.23 -6.69,-6.9 -8.42,0.51 -6.07,2.23 -5.32,-6.78 -8.99,0.44 -7.08,2.54 -5.66,-6.37l-6.16 -5.96c-9.19,1.61 -6.95,3.42 -6.16,-6.05l-7.19 -6.37 -10.01 -17.33c-9.62,0 -6.48,2.12 -7.32,-8.57l-25.29 -60.55 -4.35 -13.56 -0.67 -12.58c-10.14,-20.5 -9.91,-32.92 -0.12,-53.37l0.01 -0.03zm-303.04 -913.2c0,134.45 78.5,190.71 156.18,268.39 23.07,23.07 194.45,183.74 201.67,210.78 -35.77,2.98 -137.42,44.14 -171.61,58.88 -138.83,59.87 -302.14,186.34 -391.7,299.77l-96.7 133.78c-87.6,136.08 -158.82,354.87 -158.82,532.63 0,257.45 32.82,381.15 147.56,598.49 95.67,181.21 296.65,353.06 483.14,444.86 282.32,138.96 647.1,136.18 932.17,3.99 168.12,-77.97 323.86,-205.1 432.68,-355.82 110.39,-152.9 206.17,-384.19 206.17,-594.46l0 -109.17c0,-228.4 -109.95,-464.79 -209.68,-597.02 -15.71,-20.82 -25.53,-35.06 -41.47,-55.57l-98.85 -101.31c-116.24,-97.31 -566.54,-559.93 -661.4,-654.79 -68.2,-68.2 -131.96,-131.96 -200.16,-200.16 -83.43,-83.43 -126.28,-150.12 -274.46,-150.12 -34.09,0 -75.99,14.33 -101.24,26.13 -36.78,17.19 -49.12,30.88 -76.98,56.47l-15.04 15.3c-6.39,7.5 -7.82,9.71 -13.09,17.24 -28.53,40.73 -48.41,95.89 -48.41,151.75l0.02 -0.03z"/>
  <path class="fil5" d="M4837.66 1001.68l-8.15 0.08 -12.96 4.67 -37.34 18.07c0,9.74 2.27,6.84 -8.07,7.47l-10.75 4.76c0,9.41 2.3,7.3 -7.11,6.12l-6.41 6.13c1.55,8.91 3.41,6.81 -5.64,6.26l-5.28 6.78c1.04,9.67 3.2,7.76 -6.33,5.94l-7.31 6.03 -4.99 10.23c-0.9,10.17 2.04,8.01 -7.4,8.01l-10.6 22.31 -6.03 9.78 2.6 6.18 -10.75 15.09 -4.71 34.47 0.12 53.37 0.67 12.58 4.35 13.56 25.29 60.55c10.02,0 7.02,-2.28 7.32,8.57l10.01 17.33c9.8,0 8.02,-2.71 7.19,6.37l6.16 6.05c9.6,-1.57 7.6,-3.62 6.16,5.96 8.36,0.15 6.46,-1.95 5.66,6.37 8.61,-0.46 6.35,-2.27 5.32,6.78 9.14,-0.49 6.69,-2.55 6.69,6.9l4.91 4.47c9.47,0 7.43,-2.47 6.93,6.68 9.55,-0.85 7.19,-3.05 7.19,6.5l4.04 4.94c10.04,0 7.44,-2.45 7.44,7.74l5.45 3.5c9.72,0 7.69,-2.49 6.68,6.98 8.97,-0.24 6.44,-2.27 6.44,7.23l5.03 4.16c9.51,0 7.44,-2.47 6.98,6.72 9.38,-0.51 6.98,-2.71 6.98,6.78l4.27 4.65c10.1,0 7.49,-2.49 7.49,7.76l147.15 146.31 8.97 6.98 -577.2 4.1 -16.09 -1.39 -16.02 9.72 -8.38 -3.76 -12.07 8.17 -36.63 15.91c0,9.37 2.12,6.27 -8.01,7.89 -23.99,19.6 -26.73,21.02 -45.98,45.94 -1.41,10.38 1.72,8.22 -7.81,8.22l-21.99 54.15 -7.22 14.35 0.66 15.49 0.08 68.07 -1.57 11.14 9.6 16.73 4.12 23.65 6.05 9.46 11.55 20.68c10.19,0 7.23,-2.36 7.47,8.5 12.28,23.41 24.62,34.34 47.26,47.35 10.77,0.3 8.51,-2.7 8.51,7.26l1.49 0.41c11.34,-0.44 9.03,-3.51 9.03,6.91l26.86 11.55 10.96 5.3 2.92 -0.57 14.05 7.44 26.12 -0.08c141.15,-5.4 351.32,-0.1 506.36,-0.36 28.24,-0.05 53.78,-5.19 68.02,8.31l-212.78 215.24c-0.5,9.61 2.02,7.08 -7.58,7.63l-10.36 10.95c-0.61,9.48 1.84,6.84 -7.98,7.3l-4.4 4.49c-0.5,9.46 2.12,7.53 -6.87,6.9l-6.98 6.74 -4.53 4.14 -7.02 6.93c0.47,8.69 2.52,6.76 -6.13,5.79 -0.02,9.28 2.45,7.22 -6.37,7.22l-4.61 10.88c-0.2,11.01 2.91,8.81 -7.05,8.81l0.09 2.14c0.86,12.1 4.27,9.93 -6.33,9.93l-6.29 13.45c0.46,12.67 4.34,10.84 -5.54,10.84l0.68 8.75 -7.34 14.89 -0.54 4.71 -4.12 15.44c1.54,48.56 3.55,59.63 11.58,103.99l5.64 11.13 0.72 -0.12c10,0 6.67,-2.04 6.24,9.55l0.01 2.12c10.02,0 6.5,-1.99 6.22,9.93l4.37 10.62c10,0 7.33,-2.43 7.63,7.77l16.1 23.52c10.21,0 7.84,-2.66 7.84,7.2l16.12 11.12c10.62,-0.27 9.13,-3.28 7.42,6.31 9.07,0.09 6.93,-2.27 6.93,6.57l58.22 23.46 14.95 6.72 15.3 -0.63 56.21 -0.91 10.02 0.61 13.18 -4.25 11.04 -1.69 11.9 -5.07 6.14 -1.54 10.34 -5.97 1.91 -0.09 10.11 -5.77 9.63 -4.92c0,-9.62 -2.21,-6.69 8.18,-7.27l10.41 -4.81c0,-9.41 -2.3,-7.22 7.18,-6.27l5.77 -6.56c-1.36,-8.89 -3.16,-6.7 5.98,-6.05l5.53 -6.5c-1.16,-9.27 -3.2,-7.21 6.11,-6.2l6.41 -5.62 5.16 -6.94c-1.01,-9.11 -2.83,-6.83 6.59,-5.67l6.05 -5.92c-1.05,-9.41 -3.44,-7.7 5.49,-6.77 -0.39,-8.35 -2.21,-6.09 6.59,-5.5 -0.53,-9.04 -2.55,-7.03 6.56,-5.47l6.16 -6.16c-1.52,-9.08 -3.66,-7.17 5.18,-6.82 -0.78,-9.52 -2.96,-7.64 6.39,-5.85l6.56 -5.58c-1.76,-9.67 -3.71,-7.64 6.01,-5.96 0.31,-8.43 -1.89,-6.57 6.46,-5.72l5.62 -6.63c-1.84,-9.91 -4.05,-8.06 5.72,-6.42l6.71 -5.2c-0.19,-8.44 -2.12,-6.26 6.63,-5.68 -0.72,-8.87 -3.01,-7 5.31,-6.99 -1.07,-8.91 -2.89,-6.82 6.22,-5.5 -0.1,-8.44 -2.14,-6.29 6.44,-6.09 -1.15,-9.12 -3.47,-7.41 5.17,-6.74 -0.49,-8.46 -2.28,-6.18 6.63,-5.44 -0.33,-9.05 -2.32,-6.48 7.28,-6.48l4.18 -4.88c0,-9.58 -2.53,-7.56 6.65,-7.03 -0.59,-9.24 -2.67,-6.79 6.85,-6.79l4.64 -4.38c0,-10.1 -2.47,-7.47 7.84,-7.47l10.21 -10.93c0,-10.19 -2.58,-7.71 7.51,-7.71l356.19 -362.58c0.46,-9.67 -2.1,-7.21 7.39,-7.74l11.25 -9.65 7.96 -7.83 3.81 -4.92c0.76,-9.3 -1.91,-7.47 6.79,-6.87 -0.76,-8.89 -2.62,-6.22 6.79,-6.96l4.86 -3.95 7.68 -7.99 10.51 -10.39 7.37 -7.89 4.25 -4.84c0.78,-10.17 -2.04,-7.8 7.84,-7.8l5.27 -9.35c-0.22,-10.99 -3.11,-8.57 7.29,-8.57l4.38 -10.02 6.35 -8.9 0.11 -1.97 5.79 -10.66 6.46 -26.04 6.59 -15.43 -0.06 -76.03 -6.46 -15.7 2.99 -5.71 -10.51 -15.73 1.25 -4.73 -5.96 -10.47 0.06 -2.15 -6.31 -9.43 -16.84 -27.88c-9.35,0 -7.12,2.36 -6.82,-6.95 -8.93,0.78 -6.33,2.69 -7.05,-6.61l-77.56 -77.07 -7.49 -7.69 -4.47 -4.56c-9.35,-0.61 -7.47,2.02 -6.92,-6.78 -9.15,0.81 -6.55,2.78 -7.06,-6.74l-3.69 -5.06 -6.98 -6.77c-9.56,1.37 -7.36,3.31 -6.01,-6.42l-5.83 -6.14 -6.52 -5.48c-9.48,1.08 -7.46,3.2 -6.2,-6.22 -8.28,0.18 -6.29,2.19 -5.87,-6.11 -8.48,0.58 -6.5,2.6 -6.26,-5.77 -9.17,1.13 -7.07,3.15 -6.29,-6.07 -8.44,0.2 -6.46,2.25 -5.84,-6.2 -8.29,0.32 -6.09,2.17 -5.62,-6.5l-6.65 -5.42c-8.96,0.92 -6.84,2.89 -6.07,-6.18l-5.74 -6.31c-8.93,0.78 -7.16,3.09 -6.82,-5.31 -9.08,0.83 -6.99,2.82 -5.88,-6.37l-5.87 -6.09c-9.12,0.93 -7.31,3.23 -6.74,-5.48 -8.61,0.49 -6.42,2.38 -5.63,-6.55l-6.46 -5.54c-9.16,1.13 -7.09,3.15 -6.22,-6.05l-5.6 -6.42c-9.51,0.86 -7.64,3.03 -5.81,-6.31l-5.9 -6.42c-9.43,1.87 -7.26,3.66 -5.88,-5.99l-5.66 -6.57 -6.7 -5.57c-9.85,1.6 -8.17,3.96 -6.5,-5.57l-5.2 -6.76c-8.55,0.38 -6.27,2.21 -5.4,-6.8 -8.91,0.67 -7.06,2.99 -7,-5.35l-6.85 -4.93c-9.63,1.61 -7.35,3.45 -5.94,-6.44l-5.79 -6.29c-8.59,0.54 -6.41,2.36 -5.32,-6.59 -9.1,0.01 -6.63,2.17 -6.63,-7.28l-5.12 -3.85c-9.55,0 -7.43,2.41 -6.57,-7.04 -9.22,0.33 -6.83,2.51 -6.83,-6.87l-4.78 -4.28c-9.96,0 -7.28,2.39 -7.28,-7.93l-10.95 -10.39c-10.19,0 -7.72,2.6 -7.72,-7.45l-10.51 -10.66c-10.36,0 -8.02,2.73 -8.02,-7.18l-258.95 -253.37c-9.91,-0.94 -7.54,1.82 -7.54,-7.9l-16.1 -10.34 -9.48 -6.65 -2.49 0.25 -9.48 -6.29 -18.71 -3.57 -15.78 -10 -8.79 0.41 -17.39 -5.67 -64.35 -1.13 -19.33 8.37 -0 0.01z"/>
  <path class="fil0" d="M5003.47 2046.34c-14.24,-13.5 -39.78,-8.35 -68.02,-8.31 -155.04,0.26 -365.21,-5.04 -506.36,0.36 57.49,24.11 465.42,-6 574.39,7.95l-0 0z"/>
  <path class="fil1" d="M4424.13 1619.93l577.2 -4.1 -8.97 -6.98 -14.31 4.99c-93.15,-0.67 -186.15,-0.67 -279.16,-0.67 -57.8,0 -236.47,-12.57 -274.76,6.74l-0 0.01z"/>
  <path class="fil0" d="M4244.67 1862.67l-0.08 -68.07c-11.79,20.36 -11.9,47.73 0.08,68.07z"/>
  <path class="fil2" d="M4922.92 2667.81l-56.21 0.91c18.86,9.54 37.12,10.99 56.21,-0.91z"/>
  <path class="fil2" d="M4680.59 1233.43l-0.12 -53.37c-9.8,20.45 -10.02,32.87 0.12,53.37z"/>
  <path class="fil1" d="M4348.18 2014.76c0,-10.41 2.3,-7.35 -9.03,-6.91 0,9.29 -1.93,5.94 9.03,6.91z"/>
  <path class="fil2" d="M4280.96 1702.39c-10.64,0 -7.9,-2.6 -7.81,8.22 9.53,0 6.4,2.15 7.81,-8.22z"/>
  <path class="fil1" d="M5700.76 1939.79c-10.39,0 -7.51,-2.42 -7.29,8.57 9.41,0 6.22,2.06 7.29,-8.57z"/>
  <path class="fil0" d="M4717.88 2340.53c-9.51,0 -6.29,-2.04 -7.05,8.81 9.95,0 6.85,2.21 7.05,-8.81z"/>
  <path class="fil0" d="M4718.21 1328.68c-0.3,-10.86 2.72,-8.57 -7.32,-8.57 0.82,10.69 -2.32,8.57 7.32,8.57z"/>
  <path class="fil0" d="M4281.89 1952.83c-0.24,-10.86 2.72,-8.5 -7.47,-8.5 1.11,10.6 -2.06,8.5 7.47,8.5z"/>
  <path class="fil2" d="M4334.95 1648.57c-10.64,0 -8.01,-2.69 -8.01,7.89 10.13,-1.62 8.01,1.48 8.01,-7.89z"/>
  <path class="fil0" d="M4337.66 2007.45c0,-9.95 2.27,-6.96 -8.51,-7.26 0,9.45 -2.08,6.31 8.51,7.26z"/>
  <path class="fil0" d="M4779.21 1024.5c-10.26,0.88 -8.07,-2.08 -8.07,7.47 10.34,-0.63 8.07,2.27 8.07,-7.47z"/>
  <path class="fil1" d="M4772.75 2280.16c-10.38,0 -7.98,-2.71 -7.98,7.3 9.83,-0.46 7.37,2.19 7.98,-7.3z"/>
  <path class="fil0" d="M5688.18 1957.72c-9.88,0 -7.06,-2.38 -7.84,7.8 9.56,0 6.63,2.25 7.84,-7.8z"/>
  <path class="fil0" d="M4723.85 2584.46c-0.3,-10.21 2.38,-7.77 -7.63,-7.77 1.08,9.97 -1.82,7.77 7.63,7.77z"/>
  <path class="fil0" d="M5015.35 2631.85c-10.38,0.59 -8.18,-2.36 -8.18,7.27 10.3,-0.84 8.18,2.15 8.18,-7.27z"/>
  <path class="fil0" d="M4717.35 1084.23c-9.76,0 -6.93,-2.28 -7.4,8.01 9.44,0 6.5,2.15 7.4,-8.01z"/>
  <path class="fil1" d="M4790.68 2261.59c-10.12,0 -7.58,-2.53 -7.58,7.63 9.59,-0.54 7.07,1.99 7.58,-7.63z"/>
  <path class="fil2" d="M4795.9 1414.78c0,-10.19 2.6,-7.74 -7.44,-7.74 0.48,9.71 -2.1,7.25 7.44,7.74z"/>
  <path class="fil1" d="M5609.09 2036.8c-9.5,0.53 -6.93,-1.93 -7.39,7.74 9.98,0 7.39,2.43 7.39,-7.74z"/>
  <path class="fil2" d="M5227.78 2425.75c-10.3,0 -7.84,-2.64 -7.84,7.47 9.5,-0.69 6.97,1.89 7.84,-7.47z"/>
  <path class="fil2" d="M4747.79 2615.18c0,-9.85 2.36,-7.2 -7.84,-7.2 0.58,9.37 -1.84,6.78 7.84,7.2z"/>
  <path class="fil0" d="M5027.12 1044.2c0,-9.56 2.3,-6.72 -7.54,-7.9 0,9.72 -2.36,6.96 7.54,7.9z"/>
  <path class="fil1" d="M4771.32 2632.6c1.72,-9.58 3.21,-6.57 -7.42,-6.31 0,8.78 -2.02,6.22 7.42,6.31z"/>
  <path class="fil2" d="M5360.5 1370.48c1.15,-9.53 3.17,-6.94 -6.63,-7.28 0,9.46 -2.47,7.3 6.63,7.28z"/>
  <path class="fil2" d="M4778.25 2639.16c0,-8.83 2.15,-6.48 -6.93,-6.57 -1.67,9.53 -3.33,6.76 6.93,6.57z"/>
  <path class="fil1" d="M5578.28 1589.27c0.53,-9.28 2.6,-6.74 -7.06,-6.74 0.51,9.52 -2.1,7.57 7.06,6.74z"/>
  <path class="fil2" d="M4765.41 1384.44c0,-9.44 2.45,-7.39 -6.69,-6.9 -1.11,9.13 -2.95,6.48 6.69,6.9z"/>
  <path class="fil1" d="M5645.67 2000.57c-9.41,0.73 -7.56,-1.93 -6.79,6.96 9.29,0.58 6.79,2.65 6.79,-6.96z"/>
  <path class="fil1" d="M5585.2 1596.05c0,-9.65 2.49,-7.58 -6.92,-6.78 -0.55,8.8 -2.43,6.16 6.92,6.78z"/>
  <path class="fil2" d="M5197.63 2456.31c-9.6,0 -7.6,-2.58 -7.28,6.48 9.19,0.79 6.69,2.85 7.28,-6.48z"/>
  <path class="fil1" d="M4760.37 2291.94c-9.4,0 -7.21,-2.39 -6.87,6.9 8.99,0.63 6.37,2.57 6.87,-6.9z"/>
  <path class="fil2" d="M5342.17 1352.32c0.9,-8.96 2.72,-6.27 -6.83,-6.87 0,9.37 -2.4,7.21 6.83,6.87z"/>
  <path class="fil2" d="M4728.84 2322.43c-9.14,-1.04 -6.37,-2.75 -6.37,7.22 8.81,0 6.35,2.06 6.37,-7.22z"/>
  <path class="fil2" d="M4814.48 1432.48c0,-9.49 2.54,-7.48 -6.44,-7.23 -1,9.16 -2.97,6.61 6.44,7.23z"/>
  <path class="fil2" d="M4777.24 1395.59c0.5,-9.15 2.55,-6.68 -6.93,-6.68 0.63,9.41 -2,7.56 6.93,6.68z"/>
  <path class="fil1" d="M5638.89 2007.52c-8.69,-0.59 -6.01,-2.43 -6.79,6.87 9.6,0 7.54,2.47 6.79,-6.87z"/>
  <path class="fil2" d="M5032.93 2620.77c-9.47,-0.94 -7.18,-3.14 -7.18,6.27 9.43,-0.39 7.69,2.32 7.18,-6.27z"/>
  <path class="fil0" d="M5688.57 1698.94c-0.9,-9.47 1.89,-7.76 -6.82,-6.95 -0.3,9.3 -2.55,6.95 6.82,6.95z"/>
  <path class="fil1" d="M5681.75 1691.99c0.31,-9.09 2.4,-6.61 -7.05,-6.61 0.72,9.3 -1.89,7.4 7.05,6.61z"/>
  <path class="fil2" d="M5208.45 2444.39c-9.17,-0.53 -6.65,-2.55 -6.65,7.03 9.13,-0.92 7.24,1.7 6.65,-7.03z"/>
  <path class="fil2" d="M5215.29 2437.6c-9.51,0 -7.44,-2.45 -6.85,6.79 8.65,0.53 6,2.39 6.85,-6.79z"/>
  <path class="fil2" d="M4826.47 1443.34c0.46,-9.19 2.54,-6.72 -6.98,-6.72 0.9,9.14 -1.72,7.25 6.98,6.72z"/>
  <path class="fil2" d="M5178.55 2474.97c-8.58,-0.2 -6.55,-2.34 -6.44,6.09 9.68,1.33 7.67,3.5 6.44,-6.09z"/>
  <path class="fil2" d="M5391.39 1400.08c0.98,-8.94 2.6,-6.41 -7,-5.35 -0.06,8.35 -1.91,6.03 7,5.35z"/>
  <path class="fil2" d="M5135.91 2517.47c-8.33,-0.84 -6.14,-2.71 -6.46,5.72 9.18,1.7 7.03,3.61 6.46,-5.72z"/>
  <path class="fil2" d="M5160.58 2493.56c-8.75,-0.57 -6.82,-2.77 -6.63,5.68 9.25,0.94 7.41,3.22 6.63,-5.68z"/>
  <path class="fil1" d="M5523.88 1534.56c0.25,-8.39 2.25,-6.26 -6.29,-6.07 -0.77,9.21 -2.88,7.2 6.29,6.07z"/>
  <path class="fil2" d="M5396.79 1406.88c0.83,-9.23 3.25,-7.55 -5.4,-6.8 -0.86,9 -3.15,7.19 5.4,6.8z"/>
  <path class="fil2" d="M5165.9 2486.57c-8.32,-0.02 -6.03,-1.89 -5.31,6.99 8.72,0.63 6.29,2.34 5.31,-6.99z"/>
  <path class="fil2" d="M4758.72 1377.54c1.02,-9.04 3.29,-7.23 -5.32,-6.78 -0.75,9 -3.1,7.29 5.32,6.78z"/>
  <path class="fil2" d="M4753.4 1370.77c0.8,-8.33 2.71,-6.22 -5.66,-6.37 -1.41,8.91 -3.34,6.82 5.66,6.37z"/>
  <path class="fil0" d="M5092.61 2559.03c-8.79,-0.59 -6.99,-2.85 -6.59,5.5 8.96,0.85 7.14,3.08 6.59,-5.5z"/>
  <path class="fil0" d="M5487.67 1497.9c0.34,-8.39 2.12,-6.09 -6.82,-5.31 -0.34,8.4 -2.12,6.09 6.82,5.31z"/>
  <path class="fil0" d="M5462.36 1474.65c0.52,-8.66 2.7,-6.77 -5.63,-6.55 -0.79,8.92 -2.98,7.04 5.63,6.55z"/>
  <path class="fil0" d="M5530.13 1540.33c0.43,-8.82 2.51,-6.89 -6.26,-5.77 -0.25,8.38 -2.23,6.35 6.26,5.77z"/>
  <path class="fil0" d="M5536 1546.44c1.26,-8.82 3.12,-6.7 -5.87,-6.11 -0.43,8.31 -2.42,6.29 5.87,6.11z"/>
  <path class="fil2" d="M5190.36 2462.78c-8.91,-0.74 -7.13,-3.01 -6.63,5.44 8.76,0.59 6.96,2.86 6.63,-5.44z"/>
  <path class="fil0" d="M5511.73 1522.29c0.6,-8.75 2.8,-6.9 -5.62,-6.5 -0.46,8.66 -2.67,6.82 5.62,6.5z"/>
  <path class="fil0" d="M5517.59 1528.49c0.77,-8.56 2.73,-6.52 -5.84,-6.2 -0.61,8.44 -2.58,6.4 5.84,6.2z"/>
  <path class="fil2" d="M4698.65 2544.6l-5.64 -11.13c-1.02,13.1 -4.96,11.13 5.64,11.13z"/>
  <path class="fil2" d="M5717.62 1748.85c0.94,-12.52 4.6,-10.47 -5.96,-10.47l5.96 10.47z"/>
  <path class="fil1" d="M4710.91 2351.48l-6.33 9.93c10.6,0 7.2,2.17 6.33,-9.93z"/>
  <path class="fil2" d="M5717.38 1908.22l-5.79 10.66c10.32,0 6.56,1.95 5.79,-10.66z"/>
  <path class="fil2" d="M4985.52 2649.9l-10.34 5.97c12.36,0.74 10.34,4.37 10.34,-5.97z"/>
  <path class="fil2" d="M5003.49 1025.96c0,-10.62 2.28,-7.42 -9.48,-6.65l9.48 6.65z"/>
  <path class="fil0" d="M4698.29 2374.85l-5.54 10.84c9.88,0 6.01,1.82 5.54,-10.84z"/>
  <path class="fil0" d="M4711.85 2566.07c0.28,-11.94 3.8,-9.93 -6.22,-9.93l6.22 9.93z"/>
  <path class="fil2" d="M4699.37 1114.54c-10.1,0 -6.69,-2.02 -6.03,9.78l6.03 -9.78z"/>
  <path class="fil2" d="M5711.72 1736.23c0.65,-11.57 3.89,-9.43 -6.31,-9.43l6.31 9.43z"/>
  <path class="fil0" d="M4705.62 2554.02c0.43,-11.6 3.77,-9.55 -6.24,-9.55l6.24 9.55z"/>
  <path class="fil2" d="M4997.53 2644.05l-10.11 5.77c11.99,0.42 10.11,4.01 10.11,-5.77z"/>
  <path class="fil2" d="M4991.51 1019.55c0,-9.98 2.06,-6.67 -9.48,-6.29l9.48 6.29z"/>
  <path class="fil2" d="M4262.87 1923.65l-6.05 -9.46c-0.56,11.48 -3.85,9.46 6.05,9.46z"/>
  <path class="fil0" d="M5628.29 2019.32l-7.96 7.83c10.56,0 7.96,2.66 7.96,-7.83z"/>
  <path class="fil0" d="M5658.21 1988.63l-7.68 7.99c10.36,0 7.68,2.55 7.68,-7.99z"/>
  <path class="fil2" d="M5711.49 1920.86l-6.35 8.9c9.67,0 6.57,2.06 6.35,-8.9z"/>
  <path class="fil1" d="M5676.1 1970.35l-7.37 7.89c10.04,0 7.37,2.43 7.37,-7.89z"/>
  <path class="fil2" d="M4845.22 1462.54c0,-10.24 2.6,-7.76 -7.49,-7.76l7.49 7.76z"/>
  <path class="fil2" d="M5245.5 2407.12c-10.1,0 -7.51,-2.49 -7.51,7.71l7.51 -7.71z"/>
  <path class="fil2" d="M5330.55 1341.16l-7.28 -7.93c0,10.3 -2.69,7.93 7.28,7.93z"/>
  <path class="fil2" d="M5294.1 1304.75l-8.02 -7.18c0,9.91 -2.34,7.18 8.02,7.18z"/>
  <path class="fil2" d="M5312.34 1322.85l-7.72 -7.45c0,10.04 -2.47,7.45 7.72,7.45z"/>
  <path class="fil1" d="M5597.15 1608.29c0,-10.17 2.58,-7.69 -7.49,-7.69l7.49 7.69z"/>
  <path class="fil2" d="M5432.62 1443.78c1.78,-10.13 4.05,-8.3 -5.9,-6.42l5.9 6.42z"/>
  <path class="fil0" d="M5567.54 1577.46c0,-10.06 2.64,-8.16 -6.98,-6.77l6.98 6.77z"/>
  <path class="fil2" d="M4729.65 1067.97c-9.63,-1.82 -7.17,-3.8 -7.31,6.03l7.31 -6.03z"/>
  <path class="fil2" d="M5123.44 2529.14l-6.56 5.58c10.04,1.7 8.4,4.1 6.56,-5.58z"/>
  <path class="fil0" d="M5147.25 2504.43c-9.78,-1.65 -7.57,-3.5 -5.72,6.42l5.72 -6.42z"/>
  <path class="fil2" d="M5105.32 2547.39l-6.16 6.16c9.8,1.57 7.74,3.63 6.16,-6.16z"/>
  <path class="fil0" d="M5377.54 1389.8l-5.94 -6.44c-1.4,9.89 -3.7,8.05 5.94,6.44z"/>
  <path class="fil2" d="M4753.3 1042.87c-9.86,-1.15 -8,-3.46 -6.41,6.13l6.41 -6.13z"/>
  <path class="fil2" d="M4808.04 1425.24c1.01,-9.47 3.05,-6.98 -6.68,-6.98l6.68 6.98z"/>
  <path class="fil2" d="M4784.42 1402.1c0,-9.55 2.36,-7.36 -7.19,-6.5l7.19 6.5z"/>
  <path class="fil0" d="M5129.46 2523.2c-9.72,-1.69 -7.78,-3.73 -6.01,5.96l6.01 -5.96z"/>
  <path class="fil0" d="M5408.5 1419.21l-6.5 -5.57c-1.67,9.53 -3.35,7.18 6.5,5.57z"/>
  <path class="fil1" d="M5560.56 1570.7l-6.01 -6.42c-1.34,9.72 -3.55,7.78 6.01,6.42z"/>
  <path class="fil0" d="M4741.99 2309.71c-9.65,0 -7.5,-2.49 -7.02,6.93l7.02 -6.93z"/>
  <path class="fil2" d="M5348.73 1359.35l-6.57 -7.04c-0.85,9.44 -2.99,7.04 6.57,7.04z"/>
  <path class="fil0" d="M4735.98 1062.03l-6.33 5.94c9.52,1.82 7.36,3.75 6.33,-5.94z"/>
  <path class="fil0" d="M4747.75 1364.4c1.43,-9.58 3.44,-7.55 -6.16,-5.96l6.16 5.96z"/>
  <path class="fil2" d="M5141.54 2510.85l-5.62 6.63c9.54,0.85 7.49,2.91 5.62,-6.63z"/>
  <path class="fil1" d="M4753.5 2298.84c-9.38,-0.61 -6.98,-2.77 -6.98,6.74l6.98 -6.74z"/>
  <path class="fil2" d="M4833.45 1450.12c0,-9.48 2.4,-7.29 -6.98,-6.78l6.98 6.78z"/>
  <path class="fil2" d="M4760.41 1036.74l-7.11 6.12c9.41,1.17 7.11,3.29 7.11,-6.12z"/>
  <path class="fil0" d="M5426.74 1437.36l-5.88 -5.99c-1.37,9.65 -3.55,7.87 5.88,5.99z"/>
  <path class="fil2" d="M4735.41 1352.38c0.83,-9.06 2.62,-6.37 -7.19,-6.37l7.19 6.37z"/>
  <path class="fil1" d="M5542.2 1552.66l-6.2 -6.22c-1.25,9.41 -3.28,7.3 6.2,6.22z"/>
  <path class="fil0" d="M5116.89 2534.73c-9.34,-1.78 -7.17,-3.67 -6.39,5.85l6.39 -5.85z"/>
  <path class="fil0" d="M5438.43 1450.09l-5.81 -6.31c-1.84,9.34 -3.71,7.19 5.81,6.31z"/>
  <path class="fil2" d="M5038.71 2614.22l-5.77 6.56c9.28,0.98 7.08,2.91 5.77,-6.56z"/>
  <path class="fil2" d="M5415.19 1424.79c0.67,-9.31 2.7,-7.21 -6.7,-5.57l6.7 5.57z"/>
  <path class="fil2" d="M4741.58 1358.42l-6.16 -6.05c-0.77,9.47 -3.03,7.67 6.16,6.05z"/>
  <path class="fil0" d="M5056.31 2595.46c-9.29,-1 -7.27,-3.07 -6.11,6.2l6.11 -6.2z"/>
  <path class="fil0" d="M5074.48 2577.23c-9.43,-1.15 -7.61,-3.44 -6.59,5.67l6.59 -5.67z"/>
  <path class="fil0" d="M5450.26 1462.57l-6.22 -6.05c-0.87,9.19 -2.95,7.19 6.22,6.05z"/>
  <path class="fil2" d="M5420.86 1431.37c1.39,-9.18 3.45,-7.15 -5.66,-6.57l5.66 6.57z"/>
  <path class="fil0" d="M5086.02 2564.55c-8.93,-0.93 -6.55,-2.66 -5.49,6.77l5.49 -6.77z"/>
  <path class="fil0" d="M5480.85 1492.59l-5.88 -6.37c-1.1,9.18 -3.21,7.2 5.88,6.37z"/>
  <path class="fil0" d="M5080.52 2571.3l-6.05 5.92c9.13,1.18 7.15,3.2 6.05,-5.92z"/>
  <path class="fil0" d="M5099.16 2553.56c-9.09,-1.55 -7.09,-3.57 -6.56,5.47l6.56 -5.47z"/>
  <path class="fil2" d="M5371.61 1383.36c1.44,-8.96 3.32,-6.82 -5.79,-6.29l5.79 6.29z"/>
  <path class="fil0" d="M5044.7 2608.15c-9.15,-0.63 -7.35,-2.84 -5.98,6.05l5.98 -6.05z"/>
  <path class="fil0" d="M5499.47 1510.38l-6.07 -6.18c-0.78,9.06 -2.9,7.1 6.07,6.18z"/>
  <path class="fil0" d="M5474.97 1486.23c1.1,-9.04 3.13,-7.08 -5.87,-6.09l5.87 6.09z"/>
  <path class="fil0" d="M5554.55 1564.3c1.39,-8.91 3.24,-6.78 -5.83,-6.14l5.83 6.14z"/>
  <path class="fil0" d="M4746.89 1048.99l-5.64 6.26c9.05,0.54 7.19,2.66 5.64,-6.26z"/>
  <path class="fil2" d="M5172.11 2481.07c-9.1,-1.3 -7.29,-3.41 -6.22,5.5l6.22 -5.5z"/>
  <path class="fil0" d="M5110.5 2540.58c-8.84,-0.35 -6.71,-2.27 -5.18,6.82l5.18 -6.82z"/>
  <path class="fil0" d="M5456.72 1468.1c0.84,-8.84 2.67,-6.65 -6.46,-5.54l6.46 5.54z"/>
  <path class="fil2" d="M5401.99 1413.64c1.54,-9.07 3.66,-7.15 -5.2,-6.76l5.2 6.76z"/>
  <path class="fil0" d="M5050.22 2601.67l-5.53 6.5c8.8,0.67 6.66,2.55 5.53,-6.5z"/>
  <path class="fil0" d="M5469.09 1480.13l-6.74 -5.48c-0.56,8.71 -2.38,6.42 6.74,5.48z"/>
  <path class="fil0" d="M5444.04 1456.52c0.83,-9.09 3.1,-7.33 -5.6,-6.42l5.6 6.42z"/>
  <path class="fil2" d="M5183.72 2468.22c-8.64,-0.67 -6.33,-2.38 -5.17,6.74l5.17 -6.74z"/>
  <path class="fil2" d="M5153.96 2499.23l-6.71 5.2c8.89,1.56 6.9,3.58 6.71,-5.2z"/>
  <path class="fil0" d="M5062.72 2589.84l-6.41 5.62c8.96,0.97 7.09,3.12 6.41,-5.62z"/>
  <path class="fil0" d="M4741.26 1055.26c-8.59,-0.57 -6.27,-2.32 -5.28,6.78l5.28 -6.78z"/>
  <path class="fil0" d="M5493.41 1504.2c0.76,-8.97 2.95,-7.15 -5.74,-6.31l5.74 6.31z"/>
  <path class="fil2" d="M5365.81 1377.07l-5.32 -6.59c-1.08,8.94 -3.28,7.13 5.32,6.59z"/>
  <path class="fil0" d="M5506.11 1515.8c0.51,-8.54 2.32,-6.29 -6.65,-5.42l6.65 5.42z"/>
  <path class="fil0" d="M5548.71 1558.14c0.3,-8.61 2.27,-6.56 -6.52,-5.48l6.52 5.48z"/>
  <path class="fil0" d="M5067.88 2582.9l-5.16 6.94c8.43,0.34 6.07,2.08 5.16,-6.94z"/>
  <path class="fil2" d="M5384.39 1394.73c0.06,-8.54 1.97,-6.44 -6.85,-4.93l6.85 4.93z"/>
  <path class="fil0" d="M4734.98 2316.64l-6.13 5.79c8.65,0.97 6.61,2.91 6.13,-5.79z"/>
  <polygon class="fil2" points="4856.99,993.31 4837.66,1001.68 "/>
  <polygon class="fil0" points="4386,2031.61 4375.04,2026.31 "/>
  <polygon class="fil0" points="4685.18,1145.58 4695.92,1130.51 "/>
  <polygon class="fil2" points="4402.96,2038.48 4388.92,2031.04 "/>
  <polygon class="fil2" points="5726.88,1769.31 5716.36,1753.59 "/>
  <polygon class="fil0" points="4685.61,1259.57 4681.26,1246 "/>
  <polygon class="fil1" points="4686.09,2409.34 4693.43,2394.45 "/>
  <polygon class="fil2" points="4243.94,1779.11 4251.16,1764.76 "/>
  <polygon class="fil2" points="5730.36,1790.71 5723.89,1775.03 "/>
  <polygon class="fil0" points="4408.04,1618.52 4392.03,1628.26 "/>
  <polygon class="fil0" points="4252.7,1890.54 4243.1,1873.8 "/>
  <polygon class="fil2" points="5723.84,1882.19 5730.43,1866.76 "/>
  <polygon class="fil2" points="4685.55,2414.04 4681.42,2429.48 "/>
  <polygon class="fil2" points="4383.65,1624.5 4371.58,1632.66 "/>
  <polygon class="fil0" points="4963.31,1009.7 4947.53,999.69 "/>
  <polygon class="fil0" points="4969.05,2657.42 4957.15,2662.49 "/>
  <polygon class="fil2" points="4851.42,2669.35 4836.47,2662.62 "/>
  <polygon class="fil0" points="4946.11,2664.17 4932.93,2668.42 "/>
  <polygon class="fil2" points="4829.51,1001.76 4816.56,1006.43 "/>
  <polygon class="fil0" points="4938.73,1000.1 4921.34,994.43 "/>
 </g>
</svg>
